<?xml version="1.0" encoding="utf-8"?>
<svg contentscripttype="application/ecmascript" contentstyletype="text/css" height="1481px" preserveAspectRatio="none" style="width:1592px;height:1481px;" version="1.1" viewBox="0 0 1592 1481" width="1592px" zoomAndPan="magnify" xmlns="http://www.w3.org/2000/svg">
  <rect width="1592" height="1481" style="fill: rgb(255, 230, 210);"/>
  <g style="">
    <ellipse cx="376.8345" cy="159.242" rx="26.3345" ry="13.242" style="stroke: #383838; stroke-width: 0.5;" fill="#F8F8F8"/>
    <text lengthAdjust="spacingAndGlyphs" textLength="33" style="white-space: pre;" x="360.3345" y="162.9842" font-size="12" font-family="Tahoma, sans-serif" fill="#000000">about</text>
    <ellipse cx="222.9178" cy="605.9342" rx="15.4178" ry="12.9342" style="stroke: #383838; stroke-width: 0.5;" fill="#F8F8F8"/>
    <text lengthAdjust="spacingAndGlyphs" textLength="17" style="white-space: pre;" x="214.4178" y="609.6764" font-size="12" font-family="Tahoma, sans-serif" fill="#000000">api</text>
    <ellipse cx="66.8492" cy="672.242" rx="17.8492" ry="13.242" style="stroke: #383838; stroke-width: 0.5;" fill="#F8F8F8"/>
    <text lengthAdjust="spacingAndGlyphs" textLength="21" style="white-space: pre;" x="56.3492" y="675.9842" font-size="12" font-family="Tahoma, sans-serif" fill="#000000">app</text>
    <ellipse cx="67.1274" cy="21.242" rx="25.6274" ry="13.242" style="stroke: #383838; stroke-width: 0.5;" fill="#F8F8F8"/>
    <text lengthAdjust="spacingAndGlyphs" textLength="32" style="white-space: pre;" x="51.1274" y="24.9842" font-weight="bold" font-size="12" font-family="Tahoma, sans-serif" fill="#000000">build</text>
    <ellipse cx="1447.663" cy="1274.242" rx="29.163" ry="13.242" style="stroke: #383838; stroke-width: 0.5;" fill="#F8F8F8"/>
    <text lengthAdjust="spacingAndGlyphs" textLength="37" style="white-space: pre;" x="1429.163" y="1277.9842" font-size="12" font-family="Tahoma, sans-serif" fill="#000000">button</text>
    <ellipse cx="222.8534" cy="736.0707" rx="55.8534" ry="13.5707" style="stroke: #383838; stroke-width: 0.5;" fill="#F8F8F8"/>
    <text lengthAdjust="spacingAndGlyphs" textLength="77" style="white-space: pre;" x="184.3534" y="739.8129" font-size="12" font-family="Tahoma, sans-serif" fill="#000000">createProject</text>
    <ellipse cx="66.7601" cy="68.052" rx="60.7601" ry="14.552" style="stroke: #383838; stroke-width: 0.5;" fill="#F8F8F8"/>
    <text lengthAdjust="spacingAndGlyphs" textLength="90" style="white-space: pre;" x="21.7601" y="71.7942" font-weight="bold" font-size="12" font-family="Tahoma, sans-serif" fill="#000000">debugInLocal</text>
    <ellipse cx="1447.6335" cy="817.242" rx="46.1335" ry="13.242" style="stroke: #383838; stroke-width: 0.5;" fill="#F8F8F8"/>
    <text lengthAdjust="spacingAndGlyphs" textLength="61" style="white-space: pre;" x="1417.1335" y="820.9842" font-size="12" font-family="Tahoma, sans-serif" fill="#000000">definyType</text>
    <ellipse cx="377.0772" cy="1235.242" rx="30.5772" ry="13.242" style="stroke: #383838; stroke-width: 0.5;" fill="#F8F8F8"/>
    <text lengthAdjust="spacingAndGlyphs" textLength="39" style="white-space: pre;" x="357.5772" y="1238.9842" font-size="12" font-family="Tahoma, sans-serif" fill="#000000">header</text>
    <ellipse cx="222.8345" cy="651.242" rx="26.3345" ry="13.242" style="stroke: #383838; stroke-width: 0.5;" fill="#F8F8F8"/>
    <text lengthAdjust="spacingAndGlyphs" textLength="33" style="white-space: pre;" x="206.3345" y="654.9842" font-size="12" font-family="Tahoma, sans-serif" fill="#000000">home</text>
    <ellipse cx="1146.6777" cy="1178.242" rx="20.6777" ry="13.242" style="stroke: #383838; stroke-width: 0.5;" fill="#F8F8F8"/>
    <text lengthAdjust="spacingAndGlyphs" textLength="25" style="white-space: pre;" x="1134.1777" y="1181.9842" font-size="12" font-family="Tahoma, sans-serif" fill="#000000">icon</text>
    <rect height="34.4844" rx="3" ry="3" style="stroke: #000000; stroke-width: 0.5;" width="55" x="947" y="1133" fill="#F8F8F8"/>
    <text lengthAdjust="spacingAndGlyphs" textLength="35" style="white-space: pre;" x="957" y="1155.0059" font-size="12" font-family="Tahoma, sans-serif" fill="#000000">image</text>
    <ellipse cx="223.1335" cy="782.242" rx="46.1335" ry="13.242" style="stroke: #383838; stroke-width: 0.5;" fill="#F8F8F8"/>
    <text lengthAdjust="spacingAndGlyphs" textLength="61" style="white-space: pre;" x="192.6335" y="785.9842" font-size="12" font-family="Tahoma, sans-serif" fill="#000000">indexedDB</text>
    <ellipse cx="974.435" cy="256.242" rx="16.435" ry="13.242" style="stroke: #383838; stroke-width: 0.5;" fill="#F8F8F8"/>
    <text lengthAdjust="spacingAndGlyphs" textLength="19" style="white-space: pre;" x="964.935" y="259.9842" font-size="12" font-family="Tahoma, sans-serif" fill="#000000">link</text>
    <rect height="34.4844" rx="3" ry="3" style="stroke: #000000; stroke-width: 0.5;" width="70" x="1263.5" y="1055" fill="#F8F8F8"/>
    <text lengthAdjust="spacingAndGlyphs" textLength="50" style="white-space: pre;" x="1273.5" y="1077.0059" font-size="12" font-family="Tahoma, sans-serif" fill="#000000">listEditor</text>
    <ellipse cx="67.1274" cy="384.242" rx="25.6274" ry="13.242" style="stroke: #383838; stroke-width: 0.5;" fill="#F8F8F8"/>
    <text lengthAdjust="spacingAndGlyphs" textLength="32" style="white-space: pre;" x="51.1274" y="387.9842" font-weight="bold" font-size="12" font-family="Tahoma, sans-serif" fill="#000000">main</text>
    <rect height="34.4844" rx="3" ry="3" style="stroke: #000000; stroke-width: 0.5;" width="91" x="1253" y="403" fill="#F8F8F8"/>
    <text lengthAdjust="spacingAndGlyphs" textLength="71" style="white-space: pre;" x="1263" y="425.0059" font-size="12" font-family="Tahoma, sans-serif" fill="#000000">maybeEditor</text>
    <rect height="34.4844" rx="3" ry="3" style="stroke: #000000; stroke-width: 0.5;" width="120" x="1086.5" y="701" fill="#F8F8F8"/>
    <text lengthAdjust="spacingAndGlyphs" textLength="100" style="white-space: pre;" x="1096.5" y="723.0059" font-size="12" font-family="Tahoma, sans-serif" fill="#000000">memberListEditor</text>
    <rect height="34.4844" rx="3" ry="3" style="stroke: #000000; stroke-width: 0.5;" width="124" x="475" y="697" fill="#F8F8F8"/>
    <text lengthAdjust="spacingAndGlyphs" textLength="104" style="white-space: pre;" x="485" y="719.0059" font-size="12" font-family="Tahoma, sans-serif" fill="#000000">messageAndState</text>
    <ellipse cx="974.5478" cy="460.0096" rx="65.5478" ry="15.5096" style="stroke: #383838; stroke-width: 0.5;" fill="#F8F8F8"/>
    <text lengthAdjust="spacingAndGlyphs" textLength="102" style="white-space: pre;" x="923.5478" y="463.7518" font-size="12" font-family="Tahoma, sans-serif" fill="#000000">multilineTextInput</text>
    <ellipse cx="1447.3309" cy="722.7662" rx="64.3309" ry="15.2662" style="stroke: #383838; stroke-width: 0.5;" fill="#F8F8F8"/>
    <text lengthAdjust="spacingAndGlyphs" textLength="99" style="white-space: pre;" x="1397.8309" y="726.5084" font-size="12" font-family="Tahoma, sans-serif" fill="#000000">oneLineTextInput</text>
    <rect height="34.4844" rx="3" ry="3" style="stroke: #000000; stroke-width: 0.5;" width="88" x="641" y="1264" fill="#F8F8F8"/>
    <text lengthAdjust="spacingAndGlyphs" textLength="68" style="white-space: pre;" x="651" y="1286.0059" font-size="12" font-family="Tahoma, sans-serif" fill="#000000">page/debug</text>
    <rect height="34.4844" rx="3" ry="3" style="stroke: #000000; stroke-width: 0.5;" width="94" x="638" y="555" fill="#F8F8F8"/>
    <text lengthAdjust="spacingAndGlyphs" textLength="74" style="white-space: pre;" x="648" y="577.0059" font-size="12" font-family="Tahoma, sans-serif" fill="#000000">page/project</text>
    <ellipse cx="377.0122" cy="824.242" rx="44.0122" ry="13.242" style="stroke: #383838; stroke-width: 0.5;" fill="#F8F8F8"/>
    <text lengthAdjust="spacingAndGlyphs" textLength="58" style="white-space: pre;" x="348.0122" y="827.9842" font-size="12" font-family="Tahoma, sans-serif" fill="#000000">page/user</text>
    <rect height="34.4844" rx="3" ry="3" style="stroke: #000000; stroke-width: 0.5;" width="113" x="1090" y="759" fill="#F8F8F8"/>
    <text lengthAdjust="spacingAndGlyphs" textLength="93" style="white-space: pre;" x="1100" y="781.0059" font-size="12" font-family="Tahoma, sans-serif" fill="#000000">patternListEditor</text>
    <rect height="34.4844" rx="3" ry="3" style="stroke: #000000; stroke-width: 0.5;" width="97" x="1399" y="911" fill="#F8F8F8"/>
    <text lengthAdjust="spacingAndGlyphs" textLength="77" style="white-space: pre;" x="1409" y="933.0059" font-size="12" font-family="Tahoma, sans-serif" fill="#000000">productEditor</text>
    <ellipse cx="377.0772" cy="1190.242" rx="30.5772" ry="13.242" style="stroke: #383838; stroke-width: 0.5;" fill="#F8F8F8"/>
    <text lengthAdjust="spacingAndGlyphs" textLength="39" style="white-space: pre;" x="357.5772" y="1193.9842" font-size="12" font-family="Tahoma, sans-serif" fill="#000000">setting</text>
    <ellipse cx="377.2159" cy="651.2432" rx="59.2159" ry="14.2432" style="stroke: #383838; stroke-width: 0.5;" fill="#F8F8F8"/>
    <text lengthAdjust="spacingAndGlyphs" textLength="86" style="white-space: pre;" x="334.2159" y="654.9854" font-size="12" font-family="Tahoma, sans-serif" fill="#000000">source/project</text>
    <ellipse cx="1447.5624" cy="420.242" rx="39.0624" ry="13.242" style="stroke: #383838; stroke-width: 0.5;" fill="#F8F8F8"/>
    <text lengthAdjust="spacingAndGlyphs" textLength="51" style="white-space: pre;" x="1422.0624" y="423.9842" font-size="12" font-family="Tahoma, sans-serif" fill="#000000">tagEditor</text>
    <ellipse cx="222.8848" cy="21.242" rx="21.3848" ry="13.242" style="stroke: #383838; stroke-width: 0.5;" fill="#F8F8F8"/>
    <text lengthAdjust="spacingAndGlyphs" textLength="26" style="white-space: pre;" x="209.8848" y="24.9842" font-weight="bold" font-size="12" font-family="Tahoma, sans-serif" fill="#000000">test</text>
    <rect height="34.4844" rx="3" ry="3" style="stroke: #000000; stroke-width: 0.5;" width="77" x="1260" y="846" fill="#F8F8F8"/>
    <text lengthAdjust="spacingAndGlyphs" textLength="57" style="white-space: pre;" x="1270" y="868.0059" font-size="12" font-family="Tahoma, sans-serif" fill="#000000">typeEditor</text>
    <rect height="34.4844" rx="3" ry="3" style="stroke: #000000; stroke-width: 0.5;" width="135" x="1079" y="1073" fill="#F8F8F8"/>
    <text lengthAdjust="spacingAndGlyphs" textLength="115" style="white-space: pre;" x="1089" y="1095.0059" font-size="12" font-family="Tahoma, sans-serif" fill="#000000">typeParameterEditor</text>
    <rect height="34.4844" rx="3" ry="3" style="stroke: #000000; stroke-width: 0.5;" width="128" x="910.5" y="651" fill="#F8F8F8"/>
    <text lengthAdjust="spacingAndGlyphs" textLength="108" style="white-space: pre;" x="920.5" y="673.0059" font-size="12" font-family="Tahoma, sans-serif" fill="#000000">typePartBodyEditor</text>
    <rect height="34.4844" rx="3" ry="3" style="stroke: #000000; stroke-width: 0.5;" width="99" x="771" y="605" fill="#F8F8F8"/>
    <text lengthAdjust="spacingAndGlyphs" textLength="79" style="white-space: pre;" x="781" y="627.0059" font-size="12" font-family="Tahoma, sans-serif" fill="#000000">typePartEditor</text>
    <rect height="34.4844" rx="3" ry="3" style="stroke: #000000; stroke-width: 0.5;" width="30" x="1551" y="605" fill="#F8F8F8"/>
    <text lengthAdjust="spacingAndGlyphs" textLength="10" style="white-space: pre;" x="1561" y="627.0059" font-size="12" font-family="Tahoma, sans-serif" fill="#000000">ui</text>
    <ellipse cx="820.2843" cy="998.242" rx="31.2843" ry="13.242" style="stroke: #383838; stroke-width: 0.5;" fill="#F8F8F8"/>
    <text lengthAdjust="spacingAndGlyphs" textLength="40" style="white-space: pre;" x="800.2843" y="1001.9842" font-size="12" font-family="Tahoma, sans-serif" fill="#000000">ui/user</text>
    <ellipse cx="1447.4178" cy="180.9342" rx="15.4178" ry="12.9342" style="stroke: #383838; stroke-width: 0.5;" fill="#F8F8F8"/>
    <text lengthAdjust="spacingAndGlyphs" textLength="17" style="white-space: pre;" x="1438.9178" y="184.6764" font-size="12" font-family="Tahoma, sans-serif" fill="#000000">util</text>
    <path d="M385.014,171.66 C396.967,193.69 421.405,240.77 436,283 C488.592,435.18 522.101,627.097 532.519,691.66 " id="about-&gt;_messageAndState" style="stroke: #000000; stroke-width: 0.5;" fill="none"/>
    <polygon points="533.343,696.799,535.8681,687.2793,532.5516,691.862,527.9689,688.5456,533.343,696.799" style="stroke: #000000; stroke-width: 0.5;" fill="#000000"/>
    <path d="M399.633,152.12 C449.318,136.96 575.652,102 684,102 C684,102 684,102 1299.5,102 C1397.28,102 1448.16,84.93 1512,159 C1541.1,192.77 1559.38,511.532 1563.9,599.571 " id="about-&gt;_ui" style="stroke: #000000; stroke-width: 0.5;" fill="none"/>
    <polygon points="1564.16,604.793,1567.6977,595.6015,1563.906,599.7995,1559.708,596.0078,1564.16,604.793" style="stroke: #000000; stroke-width: 0.5;" fill="#000000"/>
    <path d="M70.9977,659.054 C79.876,620.65 106.741,503.994 128,407 C145.897,325.34 110.556,284.66 167,223 C213.63,172.06 299.582,161.2 345.385,159.18 " id="app-&gt;about" style="stroke: #000000; stroke-width: 0.5;" fill="none"/>
    <polygon points="350.497,158.99,341.3506,155.3372,345.5007,159.1813,341.6566,163.3314,350.497,158.99" style="stroke: #000000; stroke-width: 0.5;" fill="#000000"/>
    <path d="M82.7329,665.526 C102.0493,657.055 137.006,641.785 167,629 C179.385,623.721 193.384,617.869 204.159,613.388 " id="app-&gt;api" style="stroke: #000000; stroke-width: 0.5;" fill="none"/>
    <polygon points="208.866,611.433,199.0202,611.189,204.248,613.3499,202.0872,618.5778,208.866,611.433" style="stroke: #000000; stroke-width: 0.5;" fill="#000000"/>
    <path d="M83.0466,678.253 C107.501,688.416 156.429,708.75 189.202,722.37 " id="app-&gt;createProject" style="stroke: #000000; stroke-width: 0.5;" fill="none"/>
    <polygon points="193.916,724.329,187.1399,717.1817,189.2988,722.4104,184.0701,724.5693,193.916,724.329" style="stroke: #000000; stroke-width: 0.5;" fill="#000000"/>
    <path d="M68.7509,685.165 C72.2123,737.002 89.9381,930.752 167,1065 C213.782,1146.499 238.832,1162.373 318,1213 C326.576,1218.484 336.726,1222.918 346.119,1226.329 " id="app-&gt;header" style="stroke: #000000; stroke-width: 0.5;" fill="none"/>
    <polygon points="350.949,1228.02,343.7749,1221.2722,346.2295,1226.3688,341.133,1228.8233,350.949,1228.02" style="stroke: #000000; stroke-width: 0.5;" fill="#000000"/>
    <path d="M84.7739,669.713 C110.525,666.201 160.168,659.432 192.156,655.07 " id="app-&gt;home" style="stroke: #000000; stroke-width: 0.5;" fill="none"/>
    <polygon points="197.132,654.391,187.674,651.6439,192.1779,655.0667,188.7551,659.5706,197.132,654.391" style="stroke: #000000; stroke-width: 0.5;" fill="#000000"/>
    <path d="M77.7911,682.612 C94.6149,700.355 130.714,736.325 167,759 C173.561,763.1 180.98,766.766 188.196,769.903 " id="app-&gt;indexedDB" style="stroke: #000000; stroke-width: 0.5;" fill="none"/>
    <polygon points="193.146,771.989,186.4056,764.808,188.5384,770.0474,183.299,772.1802,193.146,771.989" style="stroke: #000000; stroke-width: 0.5;" fill="#000000"/>
    <path d="M84.9329,673.52 C146.393,679.035 359.844,698.191 469.637,708.044 " id="app-&gt;_messageAndState" style="stroke: #000000; stroke-width: 0.5;" fill="none"/>
    <polygon points="474.786,708.506,466.1798,703.7172,469.806,708.0589,465.4643,711.6851,474.786,708.506" style="stroke: #000000; stroke-width: 0.5;" fill="#000000"/>
    <path d="M68.9148,685.293 C74.1497,757.944 102.375,1106.702 167,1189 C279.124,1331.786 529.647,1308.1 635.406,1290.533 " id="app-&gt;_page_debug" style="stroke: #000000; stroke-width: 0.5;" fill="none"/>
    <polygon points="640.637,1289.649,631.0964,1287.2041,635.7069,1290.4819,632.429,1295.0923,640.637,1289.649" style="stroke: #000000; stroke-width: 0.5;" fill="#000000"/>
    <path d="M76.2407,660.659 C91.5026,640.724 126.343,600 167,584 C327.048,521.015 537.077,545.577 632.656,561.929 " id="app-&gt;_page_project" style="stroke: #000000; stroke-width: 0.5;" fill="none"/>
    <polygon points="637.676,562.799,629.4901,557.3226,632.7493,561.9462,628.1256,565.2054,637.676,562.799" style="stroke: #000000; stroke-width: 0.5;" fill="#000000"/>
    <path d="M73.1064,684.68 C84.9254,712.163 117.029,776.997 167,805 C218.109,833.641 287.473,833.798 331.994,829.954 " id="app-&gt;page/user" style="stroke: #000000; stroke-width: 0.5;" fill="none"/>
    <polygon points="337.028,829.493,327.7009,826.33,332.0488,829.9488,328.4301,834.2967,337.028,829.493" style="stroke: #000000; stroke-width: 0.5;" fill="#000000"/>
    <path d="M75.062,683.974 C102.8698,731.356 206.817,910.677 279,1065 C298.686,1107.089 286.271,1128.055 318,1162 C325.743,1170.284 336.452,1176.398 346.563,1180.762 " id="app-&gt;setting" style="stroke: #000000; stroke-width: 0.5;" fill="none"/>
    <polygon points="351.463,1182.766,344.6468,1175.6569,346.835,1180.8734,341.6186,1183.0617,351.463,1182.766" style="stroke: #000000; stroke-width: 0.5;" fill="#000000"/>
    <path d="M74.2777,659.95 C87.6694,635.583 121.563,580.6 167,555 C226.204,521.644 250.257,536.35 318,531 C501.549,516.504 562.065,475.13 732,546 C760.487,557.88 786.252,582.811 802.329,600.887 " id="app-&gt;_typePartEditor" style="stroke: #000000; stroke-width: 0.5;" fill="none"/>
    <polygon points="805.807,604.862,802.8903,595.4549,802.5143,601.0993,796.8699,600.7233,805.807,604.862" style="stroke: #000000; stroke-width: 0.5;" fill="#000000"/>
    <path d="M71.1726,659.091 C80.5321,620.787 108.587,504.38 128,407 C147.928,307.04 108.287,264.32 167,181 C228.445,93.8 269.329,63 376,63 C376,63 376,63 821.5,63 C946.007,63 1336.14,154.56 1427.31,176.38 " id="app-&gt;util" style="stroke: #000000; stroke-width: 0.5;" fill="none"/>
    <polygon points="1432.4,177.6,1424.572,171.6232,1427.5361,176.4413,1422.718,179.4054,1432.4,177.6" style="stroke: #000000; stroke-width: 0.5;" fill="#000000"/>
    <path d="M276.927,732.268 C330.087,728.519 412.153,722.733 469.638,718.679 " id="createProject-&gt;_messageAndState" style="stroke: #000000; stroke-width: 0.5;" fill="none"/>
    <polygon points="474.775,718.317,465.5162,714.9593,469.7874,718.6684,466.0783,722.9396,474.775,718.317" style="stroke: #000000; stroke-width: 0.5;" fill="#000000"/>
    <path d="M383.22,1247.792 C395.02,1274.882 426.549,1337.856 475,1366 C555.894,1412.9894 590.449,1391 684,1391 C684,1391 684,1391 1147.5,1391 C1235.54,1391 1263.94,1402.6206 1344,1366 C1382.12,1348.562 1416.1,1311.863 1433.73,1290.46 " id="header-&gt;button" style="stroke: #000000; stroke-width: 0.5;" fill="none"/>
    <polygon points="1437.04,1286.394,1428.2541,1290.8447,1433.8818,1290.2703,1434.4562,1295.8979,1437.04,1286.394" style="stroke: #000000; stroke-width: 0.5;" fill="#000000"/>
    <path d="M406.965,1232.096 C483.124,1224.274 695.164,1201.292 870,1171 C894.149,1166.816 921.298,1161.276 941.729,1156.936 " id="header-&gt;_image" style="stroke: #000000; stroke-width: 0.5;" fill="none"/>
    <polygon points="946.773,1155.861,937.1366,1153.8261,941.883,1156.9039,938.8052,1161.6502,946.773,1155.861" style="stroke: #000000; stroke-width: 0.5;" fill="#000000"/>
    <path d="M406.163,1230.958 C417.209,1227.89 428.914,1222.493 436,1213 C505.977,1119.248 440.526,799.793 475,688 C517.659,549.664 547.39,518.9 638,406 C688.207,343.44 698.422,318.15 771,284 C832.215,255.19 914.546,253.76 952.603,254.91 " id="header-&gt;link" style="stroke: #000000; stroke-width: 0.5;" fill="none"/>
    <polygon points="957.889,255.09,949.035,250.7764,952.8921,254.9144,948.7541,258.7714,957.889,255.09" style="stroke: #000000; stroke-width: 0.5;" fill="#000000"/>
    <path d="M405.902,1230.427 C416.769,1227.273 428.411,1221.955 436,1213 C498.876,1138.807 527.562,823.219 534.364,736.262 " id="header-&gt;_messageAndState" style="stroke: #000000; stroke-width: 0.5;" fill="none"/>
    <polygon points="534.763,731.106,530.0805,739.7706,534.3772,736.0911,538.0567,740.3878,534.763,731.106" style="stroke: #000000; stroke-width: 0.5;" fill="#000000"/>
    <path d="M382.002,1247.84 C392.273,1278.705 422.511,1357.631 475,1400 C551.117,1461.4407 586.18,1469 684,1469 C684,1469 684,1469 1299.5,1469 C1421.01,1469 1455.42,1404.5294 1512,1297 C1542.98,1238.113 1560.62,755.336 1564.28,644.584 " id="header-&gt;_ui" style="stroke: #000000; stroke-width: 0.5;" fill="none"/>
    <polygon points="1564.46,639.297,1560.1666,648.1608,1564.2958,644.2943,1568.1623,648.4235,1564.46,639.297" style="stroke: #000000; stroke-width: 0.5;" fill="#000000"/>
    <path d="M237.178,662.551 C249.637,674.145 268.012,693.097 279,713 C308.978,767.301 295.186,789.321 318,847 C374.66,990.245 351.895,1063.402 475,1156 C550.58,1212.851 589.425,1196 684,1196 C684,1196 684,1196 821.5,1196 C933.428,1196 1066.77,1185.159 1120.88,1180.303 " id="home-&gt;icon" style="stroke: #000000; stroke-width: 0.5;" fill="none"/>
    <polygon points="1126.17,1179.825,1116.851,1176.6382,1121.1897,1180.268,1117.5598,1184.6067,1126.17,1179.825" style="stroke: #000000; stroke-width: 0.5;" fill="#000000"/>
    <path d="M247.483,645.709 C258.11,642.357 270.225,637.082 279,629 C422.565,496.766 323.605,359.19 475,236 C611.616,124.83 700.371,156.59 870,204 C902.632,213.12 937.144,232.76 956.926,245.12 " id="home-&gt;link" style="stroke: #000000; stroke-width: 0.5;" fill="none"/>
    <polygon points="961.391,247.95,955.9331,239.7517,957.1686,245.272,951.6483,246.5075,961.391,247.95" style="stroke: #000000; stroke-width: 0.5;" fill="#000000"/>
    <path d="M244.027,642.993 C282.531,628.844 369.007,603.155 436,628 C470.619,640.839 501.302,671.625 519.271,692.654 " id="home-&gt;_messageAndState" style="stroke: #000000; stroke-width: 0.5;" fill="none"/>
    <polygon points="522.693,696.722,519.9616,687.2595,519.4748,692.8953,513.839,692.4085,522.693,696.722" style="stroke: #000000; stroke-width: 0.5;" fill="#000000"/>
    <path d="M249.785,651 C267.036,651 290.534,651 312.581,651 " id="home-&gt;source/project" style="stroke: #000000; stroke-width: 0.5;" fill="none"/>
    <polygon points="317.851,651,308.851,647,312.851,651,308.851,655,317.851,651" style="stroke: #000000; stroke-width: 0.5;" fill="#000000"/>
    <path d="M1002.062,1154.375 C1034.72,1159.755 1089.7,1168.809 1121.26,1174.008 " id="_image-&gt;icon" style="stroke: #000000; stroke-width: 0.5;" fill="none"/>
    <polygon points="1126.49,1174.87,1118.2462,1169.4812,1121.5544,1174.0698,1116.9658,1177.3781,1126.49,1174.87" style="stroke: #000000; stroke-width: 0.5;" fill="#000000"/>
    <path d="M946.929,1142.408 C935.08,1138.651 921.095,1133.697 909,1128 C890.588,1119.328 888.205,1113.099 870,1104 C769.72,1053.883 713.51,1087.863 638,1005 C565.122,925.025 544.966,789.441 539.727,736.305 " id="_image-&gt;_messageAndState" style="stroke: #000000; stroke-width: 0.5;" fill="none"/>
    <polygon points="539.238,731.127,536.1018,740.4632,539.7081,736.1049,544.0664,739.7111,539.238,731.127" style="stroke: #000000; stroke-width: 0.5;" fill="#000000"/>
    <path d="M958.056,257.34 C921.685,261.22 829.323,275.34 771,322 C640.259,426.6 566.515,625.913 544.824,692.057 " id="link-&gt;_messageAndState" style="stroke: #000000; stroke-width: 0.5;" fill="none"/>
    <polygon points="543.235,696.951,549.8191,689.6264,544.7792,692.1954,542.2102,687.1556,543.235,696.951" style="stroke: #000000; stroke-width: 0.5;" fill="#000000"/>
    <path d="M987.141,264.59 C1024.8,292.24 1147.01,380.99 1253,447 C1361.52,514.587 1497.26,586.637 1546.27,612.268 " id="link-&gt;_ui" style="stroke: #000000; stroke-width: 0.5;" fill="none"/>
    <polygon points="1550.74,614.602,1544.6141,606.8901,1546.308,612.2874,1540.9107,613.9813,1550.74,614.602" style="stroke: #000000; stroke-width: 0.5;" fill="#000000"/>
    <path d="M1312.03,1089.222 C1339.92,1127.545 1406.81,1219.462 1434.34,1257.296 " id="_listEditor-&gt;button" style="stroke: #000000; stroke-width: 0.5;" fill="none"/>
    <polygon points="1437.5,1261.635,1435.4374,1252.0046,1434.5574,1257.5926,1428.9694,1256.7126,1437.5,1261.635" style="stroke: #000000; stroke-width: 0.5;" fill="#000000"/>
    <path d="M1263.34,1055.9 C1139.31,997.435 712.955,796.467 578.77,733.218 " id="_listEditor-&gt;_messageAndState" style="stroke: #000000; stroke-width: 0.5;" fill="none"/>
    <polygon points="574.121,731.026,580.5571,738.481,578.6439,733.1575,583.9674,731.2443,574.121,731.026" style="stroke: #000000; stroke-width: 0.5;" fill="#000000"/>
    <path d="M1333.74,1078.128 C1380.99,1084.418 1465.59,1087.503 1512,1040 C1567.41,983.28 1566.98,722.848 1565.55,644.415 " id="_listEditor-&gt;_ui" style="stroke: #000000; stroke-width: 0.5;" fill="none"/>
    <polygon points="1565.45,639.087,1561.6282,648.1641,1565.5486,644.086,1569.6266,648.0064,1565.45,639.087" style="stroke: #000000; stroke-width: 0.5;" fill="#000000"/>
    <path d="M67,397.15 C67,482.656 67,568.164 67,653.671 " id="&lt;b&gt;main&lt;/b&gt;-&gt;app" style="stroke: #000000; stroke-width: 1.0;" fill="none"/>
    <polygon points="67,658.781,71,649.781,67,653.781,63,649.781,67,658.781" style="stroke: #000000; stroke-width: 1.0;" fill="#000000"/>
    <path d="M85.9554,392.73 C141.269,420.08 312.771,508.216 436,608 C468.207,634.079 500.14,670.183 518.964,692.806 " id="&lt;b&gt;main&lt;/b&gt;-&gt;_messageAndState" style="stroke: #000000; stroke-width: 1.0;" fill="none"/>
    <polygon points="522.323,696.867,519.6686,687.3826,519.136,693.0143,513.5043,692.4818,522.323,696.867" style="stroke: #000000; stroke-width: 1.0;" fill="#000000"/>
    <path d="M1281.83,402.95 C1244.55,363.79 1145.73,268.19 1040,234 C924.297,196.58 874.99,220.96 771,284 C702.405,325.58 681.368,338.52 638,406 C576.582,501.564 549.819,638.152 541.268,691.469 " id="_maybeEditor-&gt;_messageAndState" style="stroke: #000000; stroke-width: 0.5;" fill="none"/>
    <polygon points="540.45,696.662,545.8004,688.3932,541.2272,691.7228,537.8977,687.1496,540.45,696.662" style="stroke: #000000; stroke-width: 0.5;" fill="#000000"/>
    <path d="M1344,420 C1362.7,420 1384.37,420 1402.96,420 " id="_maybeEditor-&gt;tagEditor" style="stroke: #000000; stroke-width: 0.5;" fill="none"/>
    <polygon points="1408.11,420,1399.11,416,1403.11,420,1399.11,424,1408.11,420" style="stroke: #000000; stroke-width: 0.5;" fill="#000000"/>
    <path d="M1344.14,432.74 C1402.68,449.78 1499.46,479.212 1512,491 C1543.3,520.421 1556.58,570.882 1561.85,599.836 " id="_maybeEditor-&gt;_ui" style="stroke: #000000; stroke-width: 0.5;" fill="none"/>
    <polygon points="1562.74,604.983,1565.1442,595.4321,1561.8861,600.0565,1557.2617,596.7984,1562.74,604.983" style="stroke: #000000; stroke-width: 0.5;" fill="#000000"/>
    <path d="M1198.9,735.019 C1259.72,755.156 1359.32,788.134 1411.74,805.49 " id="_memberListEditor-&gt;definyType" style="stroke: #000000; stroke-width: 0.5;" fill="none"/>
    <polygon points="1416.66,807.12,1409.373,800.4943,1411.9133,805.5487,1406.8589,808.0891,1416.66,807.12" style="stroke: #000000; stroke-width: 0.5;" fill="#000000"/>
    <path d="M1196.67,735.175 C1203.22,739.196 1209.29,744.084 1214,750 C1263.07,811.681 1233.04,846.75 1253,923 C1264.89,968.428 1281.17,1020.909 1290.38,1049.888 " id="_memberListEditor-&gt;_listEditor" style="stroke: #000000; stroke-width: 0.5;" fill="none"/>
    <polygon points="1291.9,1054.675,1292.9737,1044.8848,1290.3795,1049.9118,1285.3525,1047.3176,1291.9,1054.675" style="stroke: #000000; stroke-width: 0.5;" fill="#000000"/>
    <path d="M1086.3,717.61 C972.406,716.86 723.506,715.221 604.262,714.436 " id="_memberListEditor-&gt;_messageAndState" style="stroke: #000000; stroke-width: 0.5;" fill="none"/>
    <polygon points="599.031,714.402,608.0045,718.4611,604.0309,714.4349,608.0571,710.4612,599.031,714.402" style="stroke: #000000; stroke-width: 0.5;" fill="#000000"/>
    <path d="M1206.57,718.988 C1255.77,719.811 1325.9,720.983 1377.63,721.848 " id="_memberListEditor-&gt;oneLineTextInput" style="stroke: #000000; stroke-width: 0.5;" fill="none"/>
    <polygon points="1382.9,721.936,1373.9699,717.7823,1377.9007,721.8503,1373.8327,725.7811,1382.9,721.936" style="stroke: #000000; stroke-width: 0.5;" fill="#000000"/>
    <path d="M1196.08,735.185 C1202.79,739.216 1209.07,744.106 1214,750 C1255.46,799.527 1205.59,846.137 1253,890 C1273.11,908.6 1343.67,918.794 1393.76,923.823 " id="_memberListEditor-&gt;_productEditor" style="stroke: #000000; stroke-width: 0.5;" fill="none"/>
    <polygon points="1398.85,924.324,1390.2812,919.4685,1393.8737,923.8382,1389.504,927.4307,1398.85,924.324" style="stroke: #000000; stroke-width: 0.5;" fill="#000000"/>
    <path d="M1190.86,735.074 C1198.99,739.297 1207.09,744.281 1214,750 C1230.68,763.805 1264.37,812.793 1283.47,841.537 " id="_memberListEditor-&gt;_typeEditor" style="stroke: #000000; stroke-width: 0.5;" fill="none"/>
    <polygon points="1286.4,845.967,1284.7674,836.2544,1283.64,841.7978,1278.0967,840.6704,1286.4,845.967" style="stroke: #000000; stroke-width: 0.5;" fill="#000000"/>
    <path d="M1206.87,704.347 C1302.59,682.338 1486.29,640.098 1545.85,626.403 " id="_memberListEditor-&gt;_ui" style="stroke: #000000; stroke-width: 0.5;" fill="none"/>
    <polygon points="1550.9,625.242,1541.2296,623.3758,1546.0289,626.3702,1543.0346,631.1695,1550.9,625.242" style="stroke: #000000; stroke-width: 0.5;" fill="#000000"/>
    <path d="M541.83,731.232 C561.634,813.782 652.467,1166.747 677.561,1258.983 " id="_messageAndState-&gt;_page_debug" style="stroke: #000000; stroke-width: 0.5;" fill="none"/>
    <polygon points="678.913,1263.931,680.3979,1254.1947,677.5944,1259.108,672.6811,1256.3045,678.913,1263.931" style="stroke: #000000; stroke-width: 0.5;" fill="#000000"/>
    <path d="M680.278,1263.961 C660.731,1181.76 569.872,828.648 544.561,736.131 " id="_page_debug-&gt;_messageAndState" style="stroke: #000000; stroke-width: 0.5;" fill="none"/>
    <polygon points="543.196,731.166,541.7226,740.904,544.5203,735.9874,549.4369,738.7852,543.196,731.166" style="stroke: #000000; stroke-width: 0.5;" fill="#000000"/>
    <path d="M557.27,696.693 C576.444,675.497 607.353,639.901 638,613 C646.294,605.72 656.27,598.609 664.808,592.163 " id="_messageAndState-&gt;_page_project" style="stroke: #000000; stroke-width: 0.5;" fill="none"/>
    <polygon points="668.871,589.054,659.293,591.3477,664.9005,592.0929,664.1553,597.7005,668.871,589.054" style="stroke: #000000; stroke-width: 0.5;" fill="#000000"/>
    <path d="M643.93,589.047 C641.89,590.672 639.901,592.331 638,594 C602.978,624.741 567.614,666.837 549.811,692.488 " id="_page_project-&gt;_messageAndState" style="stroke: #000000; stroke-width: 0.5;" fill="none"/>
    <polygon points="546.901,696.769,555.2688,691.5747,549.712,692.634,548.6527,687.0772,546.901,696.769" style="stroke: #000000; stroke-width: 0.5;" fill="#000000"/>
    <path d="M579.632,696.95 C597.149,687.835 618.062,677.267 638,670 C679.561,654.852 728.727,644.737 765.398,637.225 " id="_messageAndState-&gt;_typePartEditor" style="stroke: #000000; stroke-width: 0.5;" fill="none"/>
    <polygon points="770.716,636.135,761.0959,634.0246,765.8179,637.1395,762.7031,641.8615,770.716,636.135" style="stroke: #000000; stroke-width: 0.5;" fill="#000000"/>
    <path d="M770.716,620.517 C733.582,624.754 681.605,635.107 638,651 C608.823,661.634 577.558,679.339 557.903,693.683 " id="_typePartEditor-&gt;_messageAndState" style="stroke: #000000; stroke-width: 0.5;" fill="none"/>
    <polygon points="553.649,696.876,563.2481,694.6722,557.6478,693.8744,558.4456,688.2741,553.649,696.876" style="stroke: #000000; stroke-width: 0.5;" fill="#000000"/>
    <path d="M729.182,1288.828 C785.284,1298.302 886.366,1313 973.5,1313 C973.5,1313 973.5,1313 1147.5,1313 C1246.39,1313 1362.15,1291.764 1416.03,1280.632 " id="_page_debug-&gt;button" style="stroke: #000000; stroke-width: 0.5;" fill="none"/>
    <polygon points="1421.05,1279.588,1411.4257,1277.497,1416.154,1280.6024,1413.0486,1285.3307,1421.05,1279.588" style="stroke: #000000; stroke-width: 0.5;" fill="#000000"/>
    <path d="M729.247,1274.147 C766.612,1268.067 822.005,1258.672 870,1249 C945.991,1233.687 965.087,1229.929 1040,1210 C1068.94,1202.301 1101.91,1192.06 1123.18,1185.26 " id="_page_debug-&gt;icon" style="stroke: #000000; stroke-width: 0.5;" fill="none"/>
    <polygon points="1128.06,1183.694,1118.2681,1182.6364,1123.2993,1185.2223,1120.7134,1190.2536,1128.06,1183.694" style="stroke: #000000; stroke-width: 0.5;" fill="#000000"/>
    <path d="M695.82,589.165 C724.832,639.162 814.089,787.905 909,895 C960.579,953.201 996.134,946.785 1040,1011 C1068.32,1052.45 1042.26,1082.792 1079,1117 C1124.71,1159.559 1168.09,1113.657 1214,1156 C1249.98,1189.188 1213.83,1229.646 1253,1259 C1300.71,1294.751 1374.9,1288.249 1416.18,1280.822 " id="_page_project-&gt;button" style="stroke: #000000; stroke-width: 0.5;" fill="none"/>
    <polygon points="1421.29,1279.868,1411.7038,1277.6086,1416.3769,1280.7963,1413.1892,1285.4695,1421.29,1279.868" style="stroke: #000000; stroke-width: 0.5;" fill="#000000"/>
    <path d="M689.331,589.267 C697.862,630.604 723.262,737.5 771,814 C861.178,958.51 934.735,953.08 1040,1087 C1060.35,1112.89 1053.97,1128.597 1079,1150 C1091.38,1160.587 1108.34,1167.643 1122.03,1172.023 " id="_page_project-&gt;icon" style="stroke: #000000; stroke-width: 0.5;" fill="none"/>
    <polygon points="1126.92,1173.518,1119.4946,1167.0478,1122.1412,1172.0474,1117.1416,1174.6939,1126.92,1173.518" style="stroke: #000000; stroke-width: 0.5;" fill="#000000"/>
    <path d="M687.135,589.002 C692.342,662.419 716.079,951.654 771,1021 C800.894,1058.746 833.717,1033.346 870,1065 C894.815,1086.649 883.241,1107.483 909,1128 C918.47,1135.543 930.675,1140.571 941.915,1143.889 " id="_page_project-&gt;_image" style="stroke: #000000; stroke-width: 0.5;" fill="none"/>
    <polygon points="946.998,1145.296,939.3918,1139.0393,942.1793,1143.9617,937.2569,1146.7492,946.998,1145.296" style="stroke: #000000; stroke-width: 0.5;" fill="#000000"/>
    <path d="M729.665,554.99 C785.474,533.249 881.237,495.942 934.634,475.141 " id="_page_project-&gt;multilineTextInput" style="stroke: #000000; stroke-width: 0.5;" fill="none"/>
    <polygon points="939.351,473.303,929.5129,472.8418,934.6919,475.1175,932.4162,480.2964,939.351,473.303" style="stroke: #000000; stroke-width: 0.5;" fill="#000000"/>
    <path d="M705.434,554.856 C722.148,540.568 747.248,520.173 771,505 C875.107,438.49 922.284,397.53 1040,435 C1213.44,490.214 1376.43,649.278 1428.94,704.135 " id="_page_project-&gt;oneLineTextInput" style="stroke: #000000; stroke-width: 0.5;" fill="none"/>
    <polygon points="1432.53,707.902,1429.2111,698.6292,1429.0784,704.2845,1423.4231,704.1518,1432.53,707.902" style="stroke: #000000; stroke-width: 0.5;" fill="#000000"/>
    <path d="M694.888,554.824 C708.263,530.582 735.792,486.456 771,461 C823.624,422.95 845.621,427.14 909,413 C1098.34,370.76 1157.83,322.45 1344,377 C1363.76,382.79 1364.23,393.55 1383,402 C1391.37,405.77 1400.73,408.95 1409.63,411.53 " id="_page_project-&gt;tagEditor" style="stroke: #000000; stroke-width: 0.5;" fill="none"/>
    <polygon points="1414.52,412.9,1406.9429,406.6081,1409.7076,411.5434,1404.7723,414.308,1414.52,412.9" style="stroke: #000000; stroke-width: 0.5;" fill="#000000"/>
    <path d="M731.57,589.067 C743.573,593.563 756.595,598.44 768.848,603.029 " id="_page_project-&gt;_typePartEditor" style="stroke: #000000; stroke-width: 0.5;" fill="none"/>
    <polygon points="773.682,604.84,766.6572,597.9369,768.9998,603.0859,763.8507,605.4285,773.682,604.84" style="stroke: #000000; stroke-width: 0.5;" fill="#000000"/>
    <path d="M693.998,554.928 C710.472,520.402 748.523,444.03 771,426 C899.935,322.56 1386.22,253.75 1512,361 C1548.21,391.88 1560.46,541.869 1563.86,599.439 " id="_page_project-&gt;_ui" style="stroke: #000000; stroke-width: 0.5;" fill="none"/>
    <polygon points="1564.17,604.714,1567.6474,595.4995,1563.8833,599.7222,1559.6606,595.9581,1564.17,604.714" style="stroke: #000000; stroke-width: 0.5;" fill="#000000"/>
    <path d="M689.514,589.311 C699.601,637.869 730.538,779.187 771,892 C782.512,924.097 799.88,959.861 810.409,980.562 " id="_page_project-&gt;ui/user" style="stroke: #000000; stroke-width: 0.5;" fill="none"/>
    <polygon points="812.802,985.24,812.2643,975.4058,810.5249,980.7886,805.1421,979.0492,812.802,985.24" style="stroke: #000000; stroke-width: 0.5;" fill="#000000"/>
    <path d="M695.629,554.926 C705.55,536.911 721.067,507.512 732,481 C753.379,429.16 730.454,399.74 771,361 C796.187,336.93 1319.66,211.22 1427.27,185.57 " id="_page_project-&gt;util" style="stroke: #000000; stroke-width: 0.5;" fill="none"/>
    <polygon points="1432.36,184.36,1422.678,182.5546,1427.4961,185.5187,1424.532,190.3368,1432.36,184.36" style="stroke: #000000; stroke-width: 0.5;" fill="#000000"/>
    <path d="M378.258,837.03 C379.897,881.152 391.668,1025.907 475,1093 C615.868,1206.416 856.118,1173.362 941.904,1156.816 " id="page/user-&gt;_image" style="stroke: #000000; stroke-width: 0.5;" fill="none"/>
    <polygon points="946.845,1155.848,937.2438,1153.6531,941.9383,1156.8093,938.782,1161.5038,946.845,1155.848" style="stroke: #000000; stroke-width: 0.5;" fill="#000000"/>
    <path d="M395.21,812.019 C422.077,793.314 474.293,756.961 507.031,734.168 " id="page/user-&gt;_messageAndState" style="stroke: #000000; stroke-width: 0.5;" fill="none"/>
    <polygon points="511.319,731.183,501.6475,733.0437,507.2159,734.0403,506.2192,739.6087,511.319,731.183" style="stroke: #000000; stroke-width: 0.5;" fill="#000000"/>
    <path d="M1203.04,784.658 C1219.15,787.105 1236.76,789.72 1253,792 C1303.08,799.032 1360.56,806.365 1399.77,811.256 " id="_patternListEditor-&gt;definyType" style="stroke: #000000; stroke-width: 0.5;" fill="none"/>
    <polygon points="1404.94,811.9,1396.4997,806.8244,1399.9779,811.2856,1395.5167,814.7638,1404.94,811.9" style="stroke: #000000; stroke-width: 0.5;" fill="#000000"/>
    <path d="M1168.78,793.018 C1183.75,806.171 1203.01,825.684 1214,847 C1254.1,924.782 1205.53,966.484 1253,1040 C1255.71,1044.197 1259.18,1048.018 1262.98,1051.441 " id="_patternListEditor-&gt;_listEditor" style="stroke: #000000; stroke-width: 0.5;" fill="none"/>
    <polygon points="1266.88,1054.731,1262.5866,1045.8672,1263.0606,1051.5042,1257.4237,1051.9782,1266.88,1054.731" style="stroke: #000000; stroke-width: 0.5;" fill="#000000"/>
    <path d="M1197.5,758.849 C1203.7,755.058 1209.44,750.488 1214,745 C1290.44,652.957 1297.97,499.427 1297.96,442.3 " id="_patternListEditor-&gt;_maybeEditor" style="stroke: #000000; stroke-width: 0.5;" fill="none"/>
    <polygon points="1297.94,437.08,1293.9915,446.1027,1297.9686,442.0799,1301.9914,446.057,1297.94,437.08" style="stroke: #000000; stroke-width: 0.5;" fill="#000000"/>
    <path d="M1089.82,770.318 C977.632,758.868 724.827,733.067 604.317,720.768 " id="_patternListEditor-&gt;_messageAndState" style="stroke: #000000; stroke-width: 0.5;" fill="none"/>
    <polygon points="599.031,720.229,607.5775,725.1236,604.0051,720.7375,608.3912,717.1651,599.031,720.229" style="stroke: #000000; stroke-width: 0.5;" fill="#000000"/>
    <path d="M1203.04,766.155 C1256.21,756.73 1336.05,742.578 1389.65,733.076 " id="_patternListEditor-&gt;oneLineTextInput" style="stroke: #000000; stroke-width: 0.5;" fill="none"/>
    <polygon points="1394.76,732.172,1385.2007,729.8015,1389.8365,733.0433,1386.5947,737.6791,1394.76,732.172" style="stroke: #000000; stroke-width: 0.5;" fill="#000000"/>
    <path d="M1195.12,793.031 C1202.12,797.108 1208.73,802.052 1214,808 C1249.77,848.41 1209.54,890.993 1253,923 C1293.04,952.492 1351.45,949.558 1393.61,941.832 " id="_patternListEditor-&gt;_productEditor" style="stroke: #000000; stroke-width: 0.5;" fill="none"/>
    <polygon points="1398.67,940.868,1389.0836,938.6096,1393.757,941.7969,1390.5698,946.4703,1398.67,940.868" style="stroke: #000000; stroke-width: 0.5;" fill="#000000"/>
    <path d="M1185.23,793.076 C1194.75,797.677 1204.86,802.821 1214,808 C1232.91,818.716 1253.3,832.108 1269.2,842.995 " id="_patternListEditor-&gt;_typeEditor" style="stroke: #000000; stroke-width: 0.5;" fill="none"/>
    <polygon points="1273.56,845.995,1268.4057,837.6026,1269.4384,843.1644,1263.8766,844.1971,1273.56,845.995" style="stroke: #000000; stroke-width: 0.5;" fill="#000000"/>
    <path d="M1175.33,793.059 C1188.68,802.488 1203.92,815.273 1214,830 C1245.92,876.624 1207.84,917.037 1253,951 C1345,1020.202 1424.43,1029.735 1512,955 C1559.3,914.63 1564.6,711.898 1565.03,644.113 " id="_patternListEditor-&gt;_ui" style="stroke: #000000; stroke-width: 0.5;" fill="none"/>
    <polygon points="1565.05,639.095,1561.0063,648.0755,1565.0257,644.0949,1569.0062,648.1143,1565.05,639.095" style="stroke: #000000; stroke-width: 0.5;" fill="#000000"/>
    <path d="M1476.68,910.831 C1489.34,901.711 1503.35,889.403 1512,875 C1557.5,799.247 1564.36,690.344 1565.1,644.107 " id="_productEditor-&gt;_ui" style="stroke: #000000; stroke-width: 0.5;" fill="none"/>
    <polygon points="1565.17,639.046,1561.0623,647.9974,1565.11,644.0456,1569.0617,648.0933,1565.17,639.046" style="stroke: #000000; stroke-width: 0.5;" fill="#000000"/>
    <path d="M400.886,1198.268 C411.682,1202.372 424.654,1207.6 436,1213 C550.093,1267.298 557.646,1352 684,1352 C684,1352 684,1352 1147.5,1352 C1252.22,1352 1371.09,1306.649 1421.64,1285.108 " id="setting-&gt;button" style="stroke: #000000; stroke-width: 0.5;" fill="none"/>
    <polygon points="1426.31,1283.1,1416.462,1282.9731,1421.7152,1285.0717,1419.6166,1290.3249,1426.31,1283.1" style="stroke: #000000; stroke-width: 0.5;" fill="#000000"/>
    <path d="M382.391,1176.772 C404.191,1111.097 500.849,819.897 528.555,736.429 " id="setting-&gt;_messageAndState" style="stroke: #000000; stroke-width: 0.5;" fill="none"/>
    <polygon points="530.279,731.237,523.6487,738.5198,528.7047,735.9827,531.2419,741.0387,530.279,731.237" style="stroke: #000000; stroke-width: 0.5;" fill="#000000"/>
    <path d="M398.997,1180.869 C471.834,1149.193 713.525,1044.086 793.53,1009.294 " id="setting-&gt;ui/user" style="stroke: #000000; stroke-width: 0.5;" fill="none"/>
    <polygon points="798.116,1007.3,788.2675,1007.2212,793.5308,1009.294,791.4579,1014.5574,798.116,1007.3" style="stroke: #000000; stroke-width: 0.5;" fill="#000000"/>
    <path d="M382.589,664.953 C402.562,723.472 487.733,951.326 638,1065 C731.453,1135.695 877.221,1148.008 941.365,1149.863 " id="source/project-&gt;_image" style="stroke: #000000; stroke-width: 0.5;" fill="none"/>
    <polygon points="946.578,1149.995,937.6839,1145.7648,941.5797,1149.8664,937.4781,1153.7622,946.578,1149.995" style="stroke: #000000; stroke-width: 0.5;" fill="#000000"/>
    <path d="M379.794,636.798 C387.813,575.515 422.316,334.49 475,283 C610.891,150.18 879.638,225.05 954.02,249.29 " id="source/project-&gt;link" style="stroke: #000000; stroke-width: 0.5;" fill="none"/>
    <polygon points="959.035,250.95,951.7426,244.3303,954.287,249.3826,949.2347,251.9271,959.035,250.95" style="stroke: #000000; stroke-width: 0.5;" fill="#000000"/>
    <path d="M408.09,662.998 C430.764,672.039 462.3,684.613 488.385,695.014 " id="source/project-&gt;_messageAndState" style="stroke: #000000; stroke-width: 0.5;" fill="none"/>
    <polygon points="493.188,696.93,486.309,689.8816,488.5435,695.0785,483.3466,697.3129,493.188,696.93" style="stroke: #000000; stroke-width: 0.5;" fill="#000000"/>
    <path d="M1478.01,428.13 C1490.02,432.77 1503.14,439.77 1512,450 C1549.94,493.771 1560.72,564.344 1563.79,599.949 " id="tagEditor-&gt;_ui" style="stroke: #000000; stroke-width: 0.5;" fill="none"/>
    <polygon points="1564.19,604.941,1567.4601,595.6509,1563.7916,599.9569,1559.4855,596.2884,1564.19,604.941" style="stroke: #000000; stroke-width: 0.5;" fill="#000000"/>
    <path d="M1305.63,880.137 C1329.46,946.767 1415.83,1188.243 1440.11,1256.133 " id="_typeEditor-&gt;button" style="stroke: #000000; stroke-width: 0.5;" fill="none"/>
    <polygon points="1441.88,1261.08,1442.6094,1251.2582,1440.1932,1256.3731,1435.0783,1253.957,1441.88,1261.08" style="stroke: #000000; stroke-width: 0.5;" fill="#000000"/>
    <path d="M1337.36,851.154 C1359.98,844.076 1388.54,835.138 1410.77,828.182 " id="_typeEditor-&gt;definyType" style="stroke: #000000; stroke-width: 0.5;" fill="none"/>
    <polygon points="1415.7,826.639,1405.9147,825.5222,1410.9301,828.1385,1408.3139,833.154,1415.7,826.639" style="stroke: #000000; stroke-width: 0.5;" fill="#000000"/>
    <path d="M1259.88,856.114 C1159,837.572 874.101,784.695 638,736 C627.054,733.742 615.453,731.267 604.179,728.816 " id="_typeEditor-&gt;_messageAndState" style="stroke: #000000; stroke-width: 0.5;" fill="none"/>
    <polygon points="599.026,727.693,606.9684,733.5169,603.9114,728.7572,608.6712,725.7003,599.026,727.693" style="stroke: #000000; stroke-width: 0.5;" fill="#000000"/>
    <path d="M1317.53,845.833 C1345.26,819.419 1398.19,769.01 1426.86,741.7 " id="_typeEditor-&gt;oneLineTextInput" style="stroke: #000000; stroke-width: 0.5;" fill="none"/>
    <polygon points="1430.58,738.165,1421.3019,741.4689,1426.9569,741.6108,1426.8151,747.2659,1430.58,738.165" style="stroke: #000000; stroke-width: 0.5;" fill="#000000"/>
    <path d="M1337.36,879.739 C1357.52,888.657 1382.41,899.663 1403.33,908.912 " id="_typeEditor-&gt;_productEditor" style="stroke: #000000; stroke-width: 0.5;" fill="none"/>
    <polygon points="1408.01,910.978,1401.4052,903.6721,1403.4395,908.9505,1398.1611,910.9849,1408.01,910.978" style="stroke: #000000; stroke-width: 0.5;" fill="#000000"/>
    <path d="M1337.22,870.728 C1384.12,877.979 1463.88,882.211 1512,840 C1541.38,814.227 1557.27,694.89 1562.76,644.524 " id="_typeEditor-&gt;_ui" style="stroke: #000000; stroke-width: 0.5;" fill="none"/>
    <polygon points="1563.32,639.301,1558.3836,647.8234,1562.7871,644.2725,1566.3381,648.676,1563.32,639.301" style="stroke: #000000; stroke-width: 0.5;" fill="#000000"/>
    <path d="M1301.88,845.975 C1310.58,784.899 1342.22,571.249 1383,398 C1400.66,322.98 1428.58,235.39 1440.64,198.64 " id="_typeEditor-&gt;util" style="stroke: #000000; stroke-width: 0.5;" fill="none"/>
    <polygon points="1442.3,193.59,1435.6789,200.8812,1440.7317,198.3377,1443.2752,203.3905,1442.3,193.59" style="stroke: #000000; stroke-width: 0.5;" fill="#000000"/>
    <path d="M1193.98,1107.064 C1201.28,1111.168 1208.29,1116.112 1214,1122 C1243.77,1152.72 1221.31,1181.264 1253,1210 C1298.59,1251.339 1371.55,1266.048 1413.65,1271.23 " id="_typeParameterEditor-&gt;button" style="stroke: #000000; stroke-width: 0.5;" fill="none"/>
    <polygon points="1418.62,1271.816,1410.1505,1266.7893,1413.6544,1271.2303,1409.2134,1274.7342,1418.62,1271.816" style="stroke: #000000; stroke-width: 0.5;" fill="#000000"/>
    <path d="M1214.17,1082 C1229.22,1080.193 1244.74,1078.332 1258.23,1076.712 " id="_typeParameterEditor-&gt;_listEditor" style="stroke: #000000; stroke-width: 0.5;" fill="none"/>
    <polygon points="1263.5,1076.08,1254.0851,1073.1888,1258.5361,1076.68,1255.045,1081.131,1263.5,1076.08" style="stroke: #000000; stroke-width: 0.5;" fill="#000000"/>
    <path d="M1090.59,1072.988 C1041.75,1057.009 968.995,1031.098 909,1001 C890.597,991.768 889.114,983.652 870,976 C772.491,936.962 720.634,995.835 638,931 C574.181,880.928 549.511,780.734 541.419,736.208 " id="_typeParameterEditor-&gt;_messageAndState" style="stroke: #000000; stroke-width: 0.5;" fill="none"/>
    <polygon points="540.513,731.061,538.1345,740.6183,541.3801,735.9852,546.0132,739.2309,540.513,731.061" style="stroke: #000000; stroke-width: 0.5;" fill="#000000"/>
    <path d="M1189.51,1107.123 C1233.55,1121.984 1302.08,1135.884 1344,1099 C1395.13,1054.008 1354.91,857.045 1383,795 C1392.49,774.044 1410.2,754.755 1424.52,741.428 " id="_typeParameterEditor-&gt;oneLineTextInput" style="stroke: #000000; stroke-width: 0.5;" fill="none"/>
    <polygon points="1428.45,737.831,1419.107,740.9469,1424.7581,741.2029,1424.502,746.8539,1428.45,737.831" style="stroke: #000000; stroke-width: 0.5;" fill="#000000"/>
    <path d="M1180.72,1107.001 C1201.02,1116.419 1227.83,1127.174 1253,1132 C1292.72,1139.616 1309.58,1153.229 1344,1132 C1409.81,1091.416 1434.84,994.232 1443.03,950.27 " id="_typeParameterEditor-&gt;_productEditor" style="stroke: #000000; stroke-width: 0.5;" fill="none"/>
    <polygon points="1443.95,945.18,1438.4171,953.3278,1443.0631,950.1007,1446.2902,954.7468,1443.95,945.18" style="stroke: #000000; stroke-width: 0.5;" fill="#000000"/>
    <path d="M1185.19,1107.155 C1194.71,1111.754 1204.83,1116.878 1214,1122 C1231.98,1132.038 1233.24,1141.211 1253,1147 C1366.59,1180.281 1438.91,1178.097 1512,1085 C1566.63,1015.414 1566.6,726.819 1565.43,644.194 " id="_typeParameterEditor-&gt;_ui" style="stroke: #000000; stroke-width: 0.5;" fill="none"/>
    <polygon points="1565.35,639.054,1561.4893,648.1146,1565.4271,644.0534,1569.4884,647.9912,1565.35,639.054" style="stroke: #000000; stroke-width: 0.5;" fill="#000000"/>
    <path d="M985.881,685.392 C1002.836,712.784 1038.65,766.601 1079,803 C1131.3,850.178 1172.29,829.246 1214,886 C1255.81,942.893 1213.27,981.635 1253,1040 C1255.89,1044.248 1259.54,1048.127 1263.51,1051.605 " id="_typePartBodyEditor-&gt;_listEditor" style="stroke: #000000; stroke-width: 0.5;" fill="none"/>
    <polygon points="1267.56,1054.947,1263.1502,1046.1405,1263.6984,1051.7708,1258.0682,1052.319,1267.56,1054.947" style="stroke: #000000; stroke-width: 0.5;" fill="#000000"/>
    <path d="M1033.53,685.067 C1049.31,689.708 1066.47,694.755 1082.51,699.472 " id="_typePartBodyEditor-&gt;_memberListEditor" style="stroke: #000000; stroke-width: 0.5;" fill="none"/>
    <polygon points="1087.44,700.925,1079.9385,694.5432,1082.6441,699.5111,1077.6762,702.2167,1087.44,700.925" style="stroke: #000000; stroke-width: 0.5;" fill="#000000"/>
    <path d="M910.34,673.19 C842.835,678.931 732.72,688.858 638,700 C627.054,701.288 615.453,702.787 604.179,704.317 " id="_typePartBodyEditor-&gt;_messageAndState" style="stroke: #000000; stroke-width: 0.5;" fill="none"/>
    <polygon points="599.025,705.021,608.4838,707.7654,603.9789,704.3439,607.4004,699.8391,599.025,705.021" style="stroke: #000000; stroke-width: 0.5;" fill="#000000"/>
    <path d="M996.03,685.242 C1016.31,701.788 1048.61,726.87 1079,745 C1085.88,749.107 1093.4,753.069 1100.83,756.708 " id="_typePartBodyEditor-&gt;_patternListEditor" style="stroke: #000000; stroke-width: 0.5;" fill="none"/>
    <polygon points="1105.43,758.931,1099.0608,751.4188,1100.9263,756.7592,1095.5859,758.6247,1105.43,758.931" style="stroke: #000000; stroke-width: 0.5;" fill="#000000"/>
    <path d="M993.64,650.981 C1006.6,638.785 1024.43,621.943 1040,607 C1057.46,590.241 1058.21,581.38 1079,569 C1132.99,536.854 1155.34,549.516 1214,527 C1290.89,497.488 1378.32,454.62 1420.72,433.21 " id="_typePartBodyEditor-&gt;tagEditor" style="stroke: #000000; stroke-width: 0.5;" fill="none"/>
    <polygon points="1425.42,430.83,1415.5831,431.3149,1420.9565,433.0832,1419.1881,438.4565,1425.42,430.83" style="stroke: #000000; stroke-width: 0.5;" fill="#000000"/>
    <path d="M1038.66,662.698 C1118.75,656.018 1261.09,644.29 1383,635 C1442.36,630.476 1512.66,625.588 1545.84,623.309 " id="_typePartBodyEditor-&gt;_ui" style="stroke: #000000; stroke-width: 0.5;" fill="none"/>
    <polygon points="1550.84,622.966,1541.5869,619.5925,1545.8518,623.3088,1542.1354,627.5737,1550.84,622.966" style="stroke: #000000; stroke-width: 0.5;" fill="#000000"/>
    <path d="M828.231,639.228 C840.451,668.649 868.794,729.067 909,767 C956.864,812.158 989.525,793.78 1040,836 C1061.62,854.082 1058.2,866.988 1079,886 C1131.69,934.153 1160.4,925.864 1214,973 C1241.07,996.803 1266.98,1029.617 1282.57,1050.822 " id="_typePartEditor-&gt;_listEditor" style="stroke: #000000; stroke-width: 0.5;" fill="none"/>
    <polygon points="1285.55,1054.902,1283.4645,1045.2765,1282.5978,1050.8666,1277.0078,1049.9999,1285.55,1054.902" style="stroke: #000000; stroke-width: 0.5;" fill="#000000"/>
    <path d="M870.414,613.324 C916.094,603.938 985.256,586.38 1040,558 C1059.66,547.809 1060.28,538.827 1079,527 C1135.67,491.192 1206.06,458.66 1251.37,439.1 " id="_typePartEditor-&gt;_maybeEditor" style="stroke: #000000; stroke-width: 0.5;" fill="none"/>
    <polygon points="1256.23,437.01,1246.382,436.8787,1251.6343,438.9796,1249.5334,444.2319,1256.23,437.01" style="stroke: #000000; stroke-width: 0.5;" fill="#000000"/>
    <path d="M832.661,604.773 C855.089,570.229 903.927,495.404 909,491 C916.124,484.815 924.697,479.571 933.233,475.255 " id="_typePartEditor-&gt;multilineTextInput" style="stroke: #000000; stroke-width: 0.5;" fill="none"/>
    <polygon points="937.961,472.953,928.1181,473.2958,933.4654,475.1415,931.6197,480.4888,937.961,472.953" style="stroke: #000000; stroke-width: 0.5;" fill="#000000"/>
    <path d="M870.271,624.986 C914.667,628.055 981.944,633.583 1040,642 C1169.09,660.717 1319.18,693.54 1395.81,711.108 " id="_typePartEditor-&gt;oneLineTextInput" style="stroke: #000000; stroke-width: 0.5;" fill="none"/>
    <polygon points="1400.75,712.242,1392.8846,706.3145,1395.8789,711.1138,1391.0796,714.1082,1400.75,712.242" style="stroke: #000000; stroke-width: 0.5;" fill="#000000"/>
    <path d="M840.927,639.002 C858.411,654.111 884.973,676.591 909,695 C965.475,738.27 982.231,745.474 1040,787 C1117.95,843.036 1139.95,853.902 1214,915 C1232.2,930.012 1231.03,942.41 1253,951 C1299.63,969.23 1357.01,958.698 1397.13,946.565 " id="_typePartEditor-&gt;_productEditor" style="stroke: #000000; stroke-width: 0.5;" fill="none"/>
    <polygon points="1401.93,945.079,1392.1512,943.9064,1397.1517,946.5512,1394.5068,951.5517,1401.93,945.079" style="stroke: #000000; stroke-width: 0.5;" fill="#000000"/>
    <path d="M845.158,604.787 C862.296,592.843 886.34,577.139 909,566 C964.511,538.711 988.173,552.766 1040,519 C1061.07,505.272 1058.68,492.818 1079,478 C1148.38,427.4 1169.29,413.15 1253,394 C1309.45,381.09 1376.72,396.99 1415.24,408.99 " id="_typePartEditor-&gt;tagEditor" style="stroke: #000000; stroke-width: 0.5;" fill="none"/>
    <polygon points="1420.25,410.58,1412.8816,404.0449,1415.4842,409.0675,1410.4617,411.6701,1420.25,410.58" style="stroke: #000000; stroke-width: 0.5;" fill="#000000"/>
    <path d="M826.307,639.178 C836.69,673.883 863.978,753.51 909,806 C954.826,859.427 992.8,842.783 1040,895 C1088.79,948.972 1123.04,1029.547 1137.63,1068.019 " id="_typePartEditor-&gt;_typeParameterEditor" style="stroke: #000000; stroke-width: 0.5;" fill="none"/>
    <polygon points="1139.48,1072.94,1140.0678,1063.1087,1137.7256,1068.2579,1132.5764,1065.9157,1139.48,1072.94" style="stroke: #000000; stroke-width: 0.5;" fill="#000000"/>
    <path d="M870.012,636.681 C883.398,640.732 898.1,645.182 912.113,649.422 " id="_typePartEditor-&gt;_typePartBodyEditor" style="stroke: #000000; stroke-width: 0.5;" fill="none"/>
    <polygon points="917.241,650.974,909.7858,644.5382,912.4554,649.5255,907.4681,652.1951,917.241,650.974" style="stroke: #000000; stroke-width: 0.5;" fill="#000000"/>
    <path d="M833.146,604.955 C848.303,583.996 876.698,548.667 909,528 C960.618,494.974 991.289,522.179 1040,485 C1064.99,465.93 1053.61,444.53 1079,426 C1143.89,378.63 1173.41,387.99 1253,377 C1367.4,361.2 1426.05,320.86 1512,398 C1542.05,424.97 1557.68,548.914 1562.93,599.949 " id="_typePartEditor-&gt;_ui" style="stroke: #000000; stroke-width: 0.5;" fill="none"/>
    <polygon points="1563.44,604.942,1566.514,595.5851,1562.9368,599.9674,1558.5546,596.3902,1563.44,604.942" style="stroke: #000000; stroke-width: 0.5;" fill="#000000"/>
    <path d="M842.571,1007.718 C851.588,1012.471 861.886,1018.738 870,1026 C891.793,1045.503 885.432,1061.684 909,1079 C958.611,1115.45 984.822,1096.701 1040,1124 C1058.67,1133.238 1060.65,1140.136 1079,1150 C1093.45,1157.766 1110.51,1164.912 1123.73,1170.041 " id="ui/user-&gt;icon" style="stroke: #000000; stroke-width: 0.5;" fill="none"/>
    <polygon points="1128.42,1171.836,1121.4608,1164.8668,1123.7546,1170.0378,1118.5836,1172.3315,1128.42,1171.836" style="stroke: #000000; stroke-width: 0.5;" fill="#000000"/>
    <path d="M843.918,1007.116 C852.964,1011.692 862.915,1017.988 870,1026 C899.42,1059.269 878.546,1085.675 909,1118 C918,1127.553 930.468,1134.653 942.045,1139.705 " id="ui/user-&gt;_image" style="stroke: #000000; stroke-width: 0.5;" fill="none"/>
    <polygon points="946.94,1141.746,940.1722,1134.5908,942.325,1139.822,937.0938,1141.9748,946.94,1141.746" style="stroke: #000000; stroke-width: 0.5;" fill="#000000"/>
    <path d="M823.216,984.686 C832.863,910.243 880.916,544.978 909,435 C924.593,373.94 952.77,304.47 966.113,273.04 " id="ui/user-&gt;link" style="stroke: #000000; stroke-width: 0.5;" fill="none"/>
    <polygon points="968.122,268.33,960.917,275.0448,966.164,272.9307,968.2781,278.1776,968.122,268.33" style="stroke: #000000; stroke-width: 0.5;" fill="#000000"/>
    <path d="M790.231,1001.788 C751.152,1005.17 681.783,1005.098 638,970 C563.285,910.107 544.258,786.792 539.524,736.301 " id="ui/user-&gt;_messageAndState" style="stroke: #000000; stroke-width: 0.5;" fill="none"/>
    <polygon points="539.061,731.078,535.871,740.3959,539.5023,736.0585,543.8398,739.6898,539.061,731.078" style="stroke: #000000; stroke-width: 0.5;" fill="#000000"/>
    <script type="text/plantuml">MD5=[7c7e3412d2d60c64ccc6defbb2df815b]
@startuml

scale max 1920 width
left to right direction

skinparam nodesep 19
skinparam ranksep 39
skinparam monochrome true
skinparam shadowing false
skinparam defaultFontName Tahoma
skinparam defaultFontSize 12
skinparam roundCorner 6
skinparam dpi 150
skinparam arrowColor black
skinparam arrowThickness 0.5
skinparam packageTitleAlignment left

skinparam usecase {
  borderThickness 0.5
}

skinparam rectangle {
  borderThickness 0.5
}

skinparam component {
  borderThickness 1
}


(about)
(api)
(app)
(&lt;b&gt;build&lt;/b&gt;)
(button)
(createProject)
(&lt;b&gt;debugInLocal&lt;/b&gt;)
(definyType)
(header)
(home)
(icon)
rectangle "image" as _image
(indexedDB)
(link)
rectangle "listEditor" as _listEditor
(&lt;b&gt;main&lt;/b&gt;)
rectangle "maybeEditor" as _maybeEditor
rectangle "memberListEditor" as _memberListEditor
rectangle "messageAndState" as _messageAndState
(multilineTextInput)
(oneLineTextInput)
rectangle "page/debug" as _page_debug
rectangle "page/project" as _page_project
(page/user)
rectangle "patternListEditor" as _patternListEditor
rectangle "productEditor" as _productEditor
(setting)
(source/project)
(tagEditor)
(&lt;b&gt;test&lt;/b&gt;)
rectangle "typeEditor" as _typeEditor
rectangle "typeParameterEditor" as _typeParameterEditor
rectangle "typePartBodyEditor" as _typePartBodyEditor
rectangle "typePartEditor" as _typePartEditor
rectangle "ui" as _ui
(ui/user)
(util)


(about) --&gt; _messageAndState
(about) --&gt; _ui
(app) --&gt; (about)
(app) --&gt; (api)
(app) --&gt; (createProject)
(app) --&gt; (header)
(app) --&gt; (home)
(app) --&gt; (indexedDB)
(app) --&gt; _messageAndState
(app) --&gt; _page_debug
(app) --&gt; _page_project
(app) --&gt; (page/user)
(app) --&gt; (setting)
(app) --&gt; _typePartEditor
(app) --&gt; (util)
(createProject) --&gt; _messageAndState
(header) --&gt; (button)
(header) --&gt; _image
(header) --&gt; (link)
(header) --&gt; _messageAndState
(header) --&gt; _ui
(home) --&gt; (icon)
(home) --&gt; (link)
(home) --&gt; _messageAndState
(home) --&gt; (source/project)
_image --&gt; (icon)
_image --&gt; _messageAndState
(link) --&gt; _messageAndState
(link) --&gt; _ui
_listEditor --&gt; (button)
_listEditor --&gt; _messageAndState
_listEditor --&gt; _ui
(&lt;b&gt;main&lt;/b&gt;) -[thickness=1]&gt; (app)
(&lt;b&gt;main&lt;/b&gt;) -[thickness=1]&gt; _messageAndState
_maybeEditor --&gt; _messageAndState
_maybeEditor --&gt; (tagEditor)
_maybeEditor --&gt; _ui
_memberListEditor --&gt; (definyType)
_memberListEditor --&gt; _listEditor
_memberListEditor --&gt; _messageAndState
_memberListEditor --&gt; (oneLineTextInput)
_memberListEditor --&gt; _productEditor
_memberListEditor --&gt; _typeEditor
_memberListEditor --&gt; _ui
_messageAndState --&gt; _page_debug
_messageAndState --&gt; _page_project
_messageAndState --&gt; _typePartEditor
_page_debug --&gt; (button)
_page_debug --&gt; (icon)
_page_debug --&gt; _messageAndState
_page_project --&gt; (button)
_page_project --&gt; (icon)
_page_project --&gt; _image
_page_project --&gt; _messageAndState
_page_project --&gt; (multilineTextInput)
_page_project --&gt; (oneLineTextInput)
_page_project --&gt; (tagEditor)
_page_project --&gt; _typePartEditor
_page_project --&gt; _ui
_page_project --&gt; (ui/user)
_page_project --&gt; (util)
(page/user) --&gt; _image
(page/user) --&gt; _messageAndState
_patternListEditor --&gt; (definyType)
_patternListEditor --&gt; _listEditor
_patternListEditor --&gt; _maybeEditor
_patternListEditor --&gt; _messageAndState
_patternListEditor --&gt; (oneLineTextInput)
_patternListEditor --&gt; _productEditor
_patternListEditor --&gt; _typeEditor
_patternListEditor --&gt; _ui
_productEditor --&gt; _ui
(setting) --&gt; (button)
(setting) --&gt; _messageAndState
(setting) --&gt; (ui/user)
(source/project) --&gt; _image
(source/project) --&gt; (link)
(source/project) --&gt; _messageAndState
(tagEditor) --&gt; _ui
_typeEditor --&gt; (button)
_typeEditor --&gt; (definyType)
_typeEditor --&gt; _messageAndState
_typeEditor --&gt; (oneLineTextInput)
_typeEditor --&gt; _productEditor
_typeEditor --&gt; _ui
_typeEditor --&gt; (util)
_typeParameterEditor --&gt; (button)
_typeParameterEditor --&gt; _listEditor
_typeParameterEditor --&gt; _messageAndState
_typeParameterEditor --&gt; (oneLineTextInput)
_typeParameterEditor --&gt; _productEditor
_typeParameterEditor --&gt; _ui
_typePartBodyEditor --&gt; _listEditor
_typePartBodyEditor --&gt; _memberListEditor
_typePartBodyEditor --&gt; _messageAndState
_typePartBodyEditor --&gt; _patternListEditor
_typePartBodyEditor --&gt; (tagEditor)
_typePartBodyEditor --&gt; _ui
_typePartEditor --&gt; _listEditor
_typePartEditor --&gt; _maybeEditor
_typePartEditor --&gt; _messageAndState
_typePartEditor --&gt; (multilineTextInput)
_typePartEditor --&gt; (oneLineTextInput)
_typePartEditor --&gt; _productEditor
_typePartEditor --&gt; (tagEditor)
_typePartEditor --&gt; _typeParameterEditor
_typePartEditor --&gt; _typePartBodyEditor
_typePartEditor --&gt; _ui
(ui/user) --&gt; (icon)
(ui/user) --&gt; _image
(ui/user) --&gt; (link)
(ui/user) --&gt; _messageAndState

@enduml


' View and edit on https://arkit.pro
</script>
  </g>
</svg>